<?xml version="1.0" standalone="no"?>
<!DOCTYPE svg PUBLIC "-//W3C//DTD SVG 20010904//EN"
 "http://www.w3.org/TR/2001/REC-SVG-20010904/DTD/svg10.dtd">
<svg version="1.0" xmlns="http://www.w3.org/2000/svg"
 width="260.000000pt" height="260.000000pt" viewBox="0 0 260.000000 260.000000"
 preserveAspectRatio="xMidYMid meet">
<metadata>
Created by potrace 1.11, written by Peter Selinger 2001-2013
</metadata>
<g transform="translate(0.000000,260.000000) scale(0.100000,-0.100000)"
fill="#000000" stroke="none">
<path d="M1202 2299 c-29 -11 -59 -39 -41 -39 7 0 2 -9 -11 -20 -13 -11 -18
-20 -11 -20 7 0 9 -5 6 -10 -4 -6 -12 -7 -19 -3 -7 4 -3 -1 9 -11 11 -11 14
-17 5 -14 -18 5 -51 -22 -43 -35 4 -6 -1 -8 -11 -4 -12 5 -16 2 -14 -11 2 -9
-3 -16 -9 -14 -7 1 -13 -3 -13 -9 0 -5 -4 -8 -9 -5 -5 4 -11 2 -13 -2 -1 -5
-25 -25 -51 -45 -27 -21 -46 -37 -42 -37 3 0 0 -6 -7 -14 -7 -8 -17 -11 -23
-8 -5 3 -7 1 -2 -3 9 -10 -22 -47 -34 -39 -5 3 -6 -1 -4 -8 5 -13 -33 -48 -67
-60 -9 -4 -19 -20 -23 -37 -4 -20 -11 -29 -18 -24 -7 3 -9 3 -5 -2 11 -12 -11
-47 -25 -39 -7 4 -9 3 -4 -1 4 -5 -2 -19 -14 -31 -15 -16 -17 -24 -8 -29 8 -6
10 -4 4 6 -8 12 -6 12 8 0 9 -7 17 -15 17 -16 0 -3 -46 3 -70 8 -21 4 -48 -18
-54 -43 -5 -29 -39 -75 -55 -75 -4 0 -19 -13 -33 -28 -15 -15 -36 -29 -47 -30
-12 -1 -21 -4 -21 -8 0 -4 -9 -10 -20 -14 -11 -3 -19 -9 -18 -13 3 -14 -14
-42 -23 -36 -5 3 -9 -2 -9 -10 0 -9 -8 -16 -19 -16 -11 0 -26 -7 -34 -15 -8
-8 -17 -12 -20 -9 -3 3 -8 -3 -11 -13 -3 -10 -19 -27 -36 -38 -16 -11 -30 -23
-30 -27 0 -4 -27 -28 -60 -53 -33 -25 -60 -53 -60 -61 0 -18 34 -50 68 -64 13
-6 21 -13 19 -17 -4 -7 48 -9 86 -4 10 1 42 83 39 99 -2 7 3 15 11 18 8 3 22
22 31 42 9 21 31 46 47 57 16 11 37 34 45 50 22 45 127 89 146 60 5 -7 8 -6 8
1 0 16 52 4 70 -16 12 -13 27 -17 64 -14 26 1 51 5 54 8 3 3 12 0 20 -6 17
-15 42 -19 42 -8 0 5 -10 10 -22 12 -13 2 -29 15 -36 31 -7 15 -17 27 -22 27
-5 0 -22 11 -38 25 -16 13 -32 22 -36 18 -3 -3 -6 -2 -6 4 0 5 3 13 7 16 3 4
7 17 9 30 2 29 11 65 19 77 3 6 0 10 -7 10 -9 0 -10 3 -2 8 11 7 30 69 26 85
-1 4 6 2 17 -5 16 -9 24 -7 49 13 17 13 31 33 31 43 1 11 4 16 7 13 4 -4 15 3
25 15 11 11 19 19 19 16 0 -3 20 14 45 38 24 25 47 44 50 44 19 -1 25 2 40 16
11 12 19 13 29 5 7 -6 16 -8 19 -4 4 3 7 2 7 -4 0 -6 8 -9 19 -6 12 3 24 -3
35 -18 9 -13 16 -19 16 -14 0 5 6 3 12 -3 10 -10 10 -15 -2 -22 -9 -6 -10 -10
-3 -10 6 0 10 -9 8 -20 -2 -11 0 -20 5 -20 5 0 7 -7 4 -15 -4 -8 -1 -15 6 -15
6 0 9 -4 6 -9 -3 -5 0 -11 7 -14 11 -4 15 -36 7 -57 -1 -3 -2 -9 -1 -14 1 -4
-2 -13 -8 -20 -5 -6 -8 -32 -7 -59 0 -26 -3 -49 -9 -52 -6 -3 -5 -7 2 -11 6
-3 9 -17 7 -30 -3 -14 -1 -23 4 -20 17 10 -4 -69 -28 -104 -6 -8 -13 -22 -16
-32 -7 -20 -67 -32 -94 -18 -11 6 -20 8 -20 4 0 -3 -7 0 -17 7 -20 17 -16 17
-36 0 -15 -12 -17 -11 -18 5 0 11 -3 14 -5 7 -3 -7 -12 -9 -19 -7 -8 3 -19 3
-25 -1 -13 -8 62 -55 87 -55 8 0 11 -4 8 -10 -3 -5 2 -10 11 -10 10 0 14 -3
11 -6 -3 -4 13 -20 36 -37 45 -32 81 -66 86 -82 2 -5 5 -14 7 -20 14 -43 28
-102 27 -112 0 -7 2 -13 6 -13 3 0 6 -30 6 -67 -1 -50 -7 -79 -23 -110 -12
-23 -22 -51 -22 -63 0 -11 -4 -20 -9 -20 -15 0 0 -40 20 -51 23 -12 66 -2 82
20 16 22 132 121 141 121 4 0 19 11 34 25 15 14 35 28 46 31 10 3 26 13 37 22
18 16 26 18 83 27 16 2 31 7 34 9 2 3 22 -4 43 -14 21 -11 50 -20 64 -20 14 0
25 -4 25 -9 0 -5 13 -11 29 -14 16 -3 41 -9 57 -13 28 -7 29 -7 13 17 -9 13
-18 22 -20 19 -9 -11 -101 79 -93 92 3 4 1 8 -5 8 -21 0 4 133 27 150 4 3 17
17 27 31 11 14 24 26 28 27 5 0 16 9 25 19 21 22 118 95 151 112 12 7 32 11
42 8 10 -3 19 -1 19 5 0 6 11 7 28 3 15 -4 34 -8 42 -10 8 -1 14 -8 13 -14 -2
-6 1 -11 6 -11 14 0 42 -80 41 -114 -1 -17 -1 -35 0 -41 5 -24 -2 -85 -14
-135 -6 -24 -16 -85 -19 -122 -1 -10 -5 -18 -9 -18 -4 0 -8 -7 -8 -15 0 -24
-45 -47 -99 -50 -28 -2 -49 0 -48 4 1 3 -1 6 -4 6 -4 0 -15 7 -25 16 -11 9
-26 17 -34 17 -8 0 -25 4 -37 7 -16 5 -21 3 -19 -9 3 -25 47 -56 88 -62 20 -4
35 -10 32 -15 -3 -5 1 -9 9 -9 7 0 23 -9 35 -20 12 -11 24 -20 27 -20 8 0 31
-19 66 -54 28 -27 57 -103 60 -156 2 -27 -8 -98 -20 -145 -11 -43 -6 -162 7
-178 6 -7 34 -24 62 -37 40 -19 54 -21 74 -12 27 12 38 56 23 93 -4 13 -5 67
-2 119 4 52 7 104 7 115 2 35 -13 119 -22 130 -4 5 -7 44 -6 85 2 42 -3 91
-10 112 -10 30 -10 46 1 86 7 28 16 56 21 63 15 25 16 231 1 301 -21 103 -14
181 24 263 12 26 18 135 8 141 -5 2 -6 11 -2 19 3 9 -1 15 -10 15 -8 0 -17 5
-19 11 -10 30 -108 -3 -108 -37 0 -8 -4 -13 -9 -10 -8 5 -45 -28 -173 -152
-37 -35 -128 -70 -128 -49 0 5 -7 7 -15 4 -8 -4 -17 -2 -20 4 -4 5 -11 7 -16
4 -5 -4 -9 -2 -9 3 0 5 -12 14 -27 21 -75 29 -89 34 -108 38 -24 4 -78 25 -85
32 -11 12 -50 31 -65 31 -8 0 -22 -14 -31 -32 -17 -32 -17 -32 17 -60 18 -15
35 -26 37 -23 3 2 14 -2 24 -10 11 -7 26 -11 33 -9 17 7 64 -18 92 -48 51 -55
47 -96 -21 -188 -41 -57 -52 -68 -155 -160 -33 -30 -61 -60 -61 -65 0 -12 -63
-38 -95 -40 -11 -1 -31 5 -45 13 -24 14 -69 59 -71 71 -13 76 -16 161 -7 161
5 0 6 5 2 12 -12 19 -12 68 0 68 7 0 7 3 -1 8 -14 9 -10 80 8 142 6 25 12 53
11 63 0 9 3 17 8 17 5 0 8 23 6 50 -1 28 1 50 4 50 3 0 6 22 6 48 0 36 7 60
29 95 16 25 32 44 36 41 4 -2 10 4 13 14 4 12 27 24 64 36 32 9 71 28 86 41
16 14 32 22 36 20 5 -3 10 0 12 5 2 6 13 12 25 13 12 0 20 4 17 8 -10 17 109
34 136 18 8 -4 11 -9 7 -9 -5 0 -1 -7 7 -16 9 -8 16 -24 16 -34 0 -10 4 -20
10 -22 5 -1 11 -12 13 -23 2 -11 7 -27 11 -36 4 -9 5 -28 2 -43 -3 -15 -1 -24
5 -21 5 4 10 3 10 -2 1 -4 3 -21 5 -37 2 -16 14 -41 28 -54 20 -20 30 -23 58
-18 32 6 34 9 30 36 -2 17 0 30 4 30 5 0 9 11 9 24 0 15 -5 22 -12 19 -11 -5
-19 29 -14 60 0 4 -4 7 -11 7 -6 0 -9 2 -6 6 3 3 0 25 -8 50 -7 24 -11 44 -8
44 3 0 0 9 -6 20 -6 11 -7 20 -2 20 14 0 6 72 -9 81 -11 7 -11 9 -1 9 16 0 8
47 -12 69 -17 19 -71 28 -60 10 5 -8 2 -9 -12 -1 -15 8 -24 7 -38 -6 -15 -13
-17 -13 -11 -2 7 12 6 13 -7 3 -8 -7 -17 -11 -20 -8 -3 3 -11 -1 -18 -10 -7
-8 -21 -15 -32 -15 -10 0 -17 -4 -14 -8 6 -10 -75 -51 -131 -67 -13 -4 -23
-11 -23 -16 0 -6 -4 -8 -9 -4 -6 3 -13 -1 -18 -8 -4 -8 -23 -21 -42 -30 -37
-19 -55 -22 -31 -7 10 7 11 10 2 10 -7 0 -15 -6 -18 -14 -3 -8 -17 -17 -30
-20 -14 -4 -22 -11 -19 -16 9 -15 -15 -12 -30 4 -8 7 -11 17 -7 22 4 5 0 3 -9
-4 -13 -10 -19 -8 -33 7 -13 15 -14 20 -4 24 9 4 8 6 -3 6 -16 1 -23 31 -6 31
5 0 7 7 3 15 -3 8 -1 15 5 15 6 0 7 5 4 10 -3 6 -2 10 3 10 5 0 8 14 7 30 -1
17 2 30 7 30 5 0 6 6 2 12 -5 7 -9 27 -9 44 -1 17 -5 36 -9 42 -4 7 -4 17 0
24 5 7 3 8 -5 4 -7 -5 -10 -14 -7 -22 3 -8 1 -14 -4 -14 -6 0 -10 8 -10 18 0
14 -2 15 -10 2 -8 -12 -10 -12 -10 5 0 15 -2 17 -9 6 -5 -7 -10 -9 -12 -3 -3
6 -13 6 -27 1z m-458 -533 c-3 -8 -13 -17 -22 -21 -13 -5 -13 -2 3 15 21 24
26 25 19 6z"/>
</g>
</svg>
